<mxfile host="app.diagrams.net" modified="2020-11-23T08:18:05.823Z" agent="5.0 (Windows NT 10.0; Win64; x64) AppleWebKit/537.36 (KHTML, like Gecko) Chrome/86.0.4240.193 Safari/537.36" etag="stitzKs7U_37cxgTRHVr" version="13.9.7" type="github">
  <diagram name="Page-1" id="c7558073-3199-34d8-9f00-42111426c3f3">
    <mxGraphModel dx="1673" dy="934" grid="1" gridSize="10" guides="1" tooltips="1" connect="1" arrows="1" fold="1" page="1" pageScale="1" pageWidth="826" pageHeight="1169" background="#ffffff" math="0" shadow="0">
      <root>
        <mxCell id="0" />
        <mxCell id="1" parent="0" />
        <mxCell id="1v4hyU_0CHuTicEXj352-102" style="edgeStyle=orthogonalEdgeStyle;rounded=0;orthogonalLoop=1;jettySize=auto;html=1;entryX=0;entryY=0.391;entryDx=0;entryDy=0;entryPerimeter=0;" edge="1" parent="1" source="1v4hyU_0CHuTicEXj352-96" target="1v4hyU_0CHuTicEXj352-101">
          <mxGeometry relative="1" as="geometry" />
        </mxCell>
        <mxCell id="1v4hyU_0CHuTicEXj352-96" value="Real-time Data" style="whiteSpace=wrap;align=center;verticalAlign=middle;fontStyle=1;strokeWidth=3;fillColor=#FFFFCC" vertex="1" parent="1">
          <mxGeometry x="20" y="305" width="90" height="60" as="geometry" />
        </mxCell>
        <mxCell id="1v4hyU_0CHuTicEXj352-103" style="edgeStyle=orthogonalEdgeStyle;rounded=1;orthogonalLoop=1;jettySize=auto;html=1;strokeWidth=2;" edge="1" parent="1" target="1v4hyU_0CHuTicEXj352-101">
          <mxGeometry relative="1" as="geometry">
            <mxPoint x="110" y="494.94117647058806" as="sourcePoint" />
          </mxGeometry>
        </mxCell>
        <mxCell id="1v4hyU_0CHuTicEXj352-98" value="&lt;p style=&quot;margin: 0px ; margin-top: 4px ; text-align: center ; text-decoration: underline&quot;&gt;&lt;strong&gt;Process 1&lt;br&gt;&lt;/strong&gt;&lt;/p&gt;&lt;hr&gt;&lt;p style=&quot;margin: 0px ; margin-left: 8px&quot;&gt;Lightweight&lt;/p&gt;&lt;p style=&quot;margin: 0px ; margin-left: 8px&quot;&gt;protocol&lt;/p&gt;&lt;p style=&quot;margin: 0px ; margin-left: 8px&quot;&gt;conversion&lt;/p&gt;&lt;p style=&quot;margin: 0px ; margin-left: 8px&quot;&gt;Layer&lt;/p&gt;&lt;p style=&quot;margin: 0px ; margin-left: 8px&quot;&gt;&lt;br&gt;&lt;/p&gt;" style="verticalAlign=middle;align=center;overflow=fill;fontSize=12;fontFamily=Helvetica;html=1;rounded=1;fontStyle=1;strokeWidth=3;fillColor=#E6FFCC;dashed=1;" vertex="1" parent="1">
          <mxGeometry x="166" y="290" width="93" height="115" as="geometry" />
        </mxCell>
        <mxCell id="1v4hyU_0CHuTicEXj352-100" value="Message Bus" style="shape=process;whiteSpace=wrap;align=center;verticalAlign=middle;size=0.0475;fontStyle=1;strokeWidth=3;fillColor=#FFCCCC" vertex="1" parent="1">
          <mxGeometry x="120" y="585" width="550" height="50" as="geometry" />
        </mxCell>
        <mxCell id="1v4hyU_0CHuTicEXj352-101" value="&lt;p style=&quot;margin: 0px ; margin-top: 4px ; text-align: center ; text-decoration: underline&quot;&gt;&lt;strong&gt;&lt;strong&gt;Process&lt;/strong&gt; 2&lt;br&gt;&lt;/strong&gt;&lt;/p&gt;&lt;hr&gt;&lt;p style=&quot;margin: 0px ; margin-left: 8px&quot;&gt;Data&amp;nbsp;&lt;/p&gt;&lt;p style=&quot;margin: 0px ; margin-left: 8px&quot;&gt;Preprocessing&lt;/p&gt;" style="verticalAlign=middle;align=center;overflow=fill;fontSize=12;fontFamily=Helvetica;html=1;rounded=1;fontStyle=1;strokeWidth=3;fillColor=#E6FFCC" vertex="1" parent="1">
          <mxGeometry x="333.5" y="290" width="111.5" height="115" as="geometry" />
        </mxCell>
        <mxCell id="1v4hyU_0CHuTicEXj352-105" value="Historical Data" style="shape=note;whiteSpace=wrap;html=1;backgroundOutline=1;darkOpacity=0.05;strokeWidth=3;fillColor=#FFFFCC;" vertex="1" parent="1">
          <mxGeometry x="20" y="450" width="90" height="90" as="geometry" />
        </mxCell>
        <mxCell id="1v4hyU_0CHuTicEXj352-107" value="" style="rounded=0;whiteSpace=wrap;html=1;strokeWidth=3;fillColor=#dae8fc;dashed=1;dashPattern=1 4;strokeColor=#6c8ebf;" vertex="1" parent="1">
          <mxGeometry x="470" y="70" width="350" height="470" as="geometry" />
        </mxCell>
        <mxCell id="1v4hyU_0CHuTicEXj352-106" value="Relational database" style="shape=cylinder3;whiteSpace=wrap;html=1;boundedLbl=1;backgroundOutline=1;size=15;strokeWidth=3;fillColor=#FFFFCC;" vertex="1" parent="1">
          <mxGeometry x="510" y="90" width="70" height="80" as="geometry" />
        </mxCell>
        <mxCell id="1v4hyU_0CHuTicEXj352-110" value="Text" style="text;html=1;strokeColor=none;fillColor=none;align=center;verticalAlign=middle;whiteSpace=wrap;rounded=0;dashed=1;dashPattern=1 4;" vertex="1" parent="1">
          <mxGeometry x="595" y="50" width="100" height="20" as="geometry" />
        </mxCell>
      </root>
    </mxGraphModel>
  </diagram>
</mxfile>
